# xmcd CD database file
#
# Track frame offsets:
#	150
#	28552
#	77780
#	100302
#	148620
#	170140
#	201740
#	263547
#
# Disc length: 3738 seconds
#
# Revision: 0
# Processed by: cddbd v1.5.1PL2 Copyright (c) Steve Scherf et al.
# Submitted via: CDex 1.51
#
DISCID=700e9808
DTITLE=JOHN COLTRANE - JOHN COLTRANE
DYEAR=1900
DGENRE=Jazz
TTITLE0=Violets For Your Furs
TTITLE1=I Want To Talk About You
TTITLE2=Like Someone In You
TTITLE3=Blue Train
TTITLE4=Giant Steps
TTITLE5=Mr.P.C
TTITLE6=My Favorite Things
TTITLE7=What's New
EXTD=
EXTT0=
EXTT1=
EXTT2=
EXTT3=
EXTT4=
EXTT5=
EXTT6=
EXTT7=
PLAYORDER=
